<svg width="41" height="41" viewBox="0 0 41 41" fill="none" xmlns="http://www.w3.org/2000/svg">
<rect x="0.865234" y="0.0625" width="40" height="40" rx="20" fill="#0F4B90" fill-opacity="0.1"/>
<path d="M15.2869 22.3958V14.3958H13.9536V13.0625H15.9536C16.1402 13.0625 16.298 13.1269 16.4269 13.2558C16.5558 13.3847 16.6202 13.5425 16.6202 13.7292V21.7292H24.9136L26.2469 16.3958H17.9536V15.0625H27.1002C27.2869 15.0625 27.4447 15.1269 27.5736 15.2558C27.7025 15.3847 27.7669 15.5425 27.7669 15.7292C27.7669 15.7825 27.758 15.8358 27.7402 15.8892L26.0736 22.5558C26.038 22.7069 25.9602 22.8292 25.8403 22.9225C25.7203 23.0158 25.5847 23.0625 25.4336 23.0625H15.9536C15.7669 23.0625 15.6091 22.9981 15.4802 22.8692C15.3514 22.7403 15.2869 22.5825 15.2869 22.3958ZM16.6202 27.0625C16.3802 27.0625 16.158 27.0025 15.9536 26.8825C15.7491 26.7625 15.5869 26.6003 15.4669 26.3958C15.3469 26.1914 15.2869 25.9692 15.2869 25.7292C15.2869 25.4892 15.3469 25.2669 15.4669 25.0625C15.5869 24.8581 15.7491 24.6958 15.9536 24.5758C16.158 24.4558 16.3802 24.3958 16.6202 24.3958C16.8602 24.3958 17.0825 24.4558 17.2869 24.5758C17.4914 24.6958 17.6536 24.8581 17.7736 25.0625C17.8936 25.2669 17.9536 25.4892 17.9536 25.7292C17.9536 25.9692 17.8936 26.1914 17.7736 26.3958C17.6536 26.6003 17.4914 26.7625 17.2869 26.8825C17.0825 27.0025 16.8602 27.0625 16.6202 27.0625ZM24.6202 27.0625C24.3802 27.0625 24.158 27.0025 23.9536 26.8825C23.7491 26.7625 23.5869 26.6003 23.4669 26.3958C23.3469 26.1914 23.2869 25.9692 23.2869 25.7292C23.2869 25.4892 23.3469 25.2669 23.4669 25.0625C23.5869 24.8581 23.7491 24.6958 23.9536 24.5758C24.158 24.4558 24.3802 24.3958 24.6202 24.3958C24.8602 24.3958 25.0825 24.4558 25.2869 24.5758C25.4914 24.6958 25.6536 24.8581 25.7736 25.0625C25.8936 25.2669 25.9536 25.4892 25.9536 25.7292C25.9536 25.9692 25.8936 26.1914 25.7736 26.3958C25.6536 26.6003 25.4914 26.7625 25.2869 26.8825C25.0825 27.0025 24.8602 27.0625 24.6202 27.0625Z" fill="#0F4B90"/>
</svg>
