<svg width="49" height="49" viewBox="0 0 49 49" fill="none" xmlns="http://www.w3.org/2000/svg">
<rect x="0.865234" y="0.0625" width="48" height="48" rx="24" fill="#FF9EC3" fill-opacity="0.1"/>
<path d="M25.6986 30.7318V32.3984H24.0319V30.7318H17.3653C17.1319 30.7318 16.9347 30.6512 16.7736 30.4901C16.6125 30.329 16.5319 30.1318 16.5319 29.8984V16.5651C16.5319 16.3318 16.6125 16.1345 16.7736 15.9734C16.9347 15.8123 17.1319 15.7318 17.3653 15.7318H22.3653C22.8541 15.7318 23.3153 15.8318 23.7486 16.0318C24.1819 16.2318 24.5541 16.5095 24.8653 16.8651C25.1764 16.5095 25.5486 16.2318 25.9819 16.0318C26.4153 15.8318 26.8764 15.7318 27.3653 15.7318H32.3653C32.5986 15.7318 32.7958 15.8123 32.9569 15.9734C33.118 16.1345 33.1986 16.3318 33.1986 16.5651V29.8984C33.1986 30.1318 33.118 30.329 32.9569 30.4901C32.7958 30.6512 32.5986 30.7318 32.3653 30.7318H25.6986ZM31.5319 29.0651V17.3984H27.3653C27.0653 17.3984 26.7875 17.4734 26.5319 17.6234C26.2764 17.7734 26.0736 17.9762 25.9236 18.2318C25.7736 18.4873 25.6986 18.7651 25.6986 19.0651V29.0651H31.5319ZM24.0319 29.0651V19.0651C24.0319 18.7651 23.9569 18.4873 23.8069 18.2318C23.6569 17.9762 23.4541 17.7734 23.1986 17.6234C22.943 17.4734 22.6653 17.3984 22.3653 17.3984H18.1986V29.0651H24.0319Z" fill="#FF9EC3"/>
</svg>
