<svg width="12" height="12" viewBox="0 0 12 12" fill="none" xmlns="http://www.w3.org/2000/svg">
<path d="M4.11396 0.153646V1.32031H7.61636V0.153646H8.78383V1.32031H11.1188C11.2822 1.32031 11.4204 1.3767 11.5332 1.48948C11.6461 1.60226 11.7025 1.74031 11.7025 1.90365V11.237C11.7025 11.4003 11.6461 11.5384 11.5332 11.6511C11.4204 11.7639 11.2822 11.8203 11.1188 11.8203H0.611565C0.44812 11.8203 0.30997 11.7639 0.197115 11.6511C0.0842596 11.5384 0.027832 11.4003 0.027832 11.237V1.90365C0.027832 1.74031 0.0842596 1.60226 0.197115 1.48948C0.30997 1.3767 0.44812 1.32031 0.611565 1.32031H2.9465V0.153646H4.11396ZM10.535 5.98698H1.1953V10.6536H10.535V5.98698ZM2.9465 2.48698H1.1953V4.82031H10.535V2.48698H8.78383V3.65365H7.61636V2.48698H4.11396V3.65365H2.9465V2.48698Z" fill="#6B7280"/>
</svg>
