<svg width="41" height="41" viewBox="0 0 41 41" fill="none" xmlns="http://www.w3.org/2000/svg">
<rect x="0.865234" y="0.984375" width="40" height="40" rx="20" fill="#0F4B90" fill-opacity="0.1"/>
<path d="M14.8603 14.9844H26.8603C27.0469 14.9844 27.2047 15.0488 27.3336 15.1777C27.4625 15.3066 27.5269 15.4644 27.5269 15.651V26.3177C27.5269 26.5044 27.4625 26.6622 27.3336 26.791C27.2047 26.9199 27.0469 26.9844 26.8603 26.9844H14.8603C14.6736 26.9844 14.5158 26.9199 14.3869 26.791C14.258 26.6622 14.1936 26.5044 14.1936 26.3177V15.651C14.1936 15.4644 14.258 15.3066 14.3869 15.1777C14.5158 15.0488 14.6736 14.9844 14.8603 14.9844ZM26.1936 17.811L20.9136 22.5444L15.5269 17.7977V25.651H26.1936V17.811ZM15.8736 16.3177L20.9003 20.7577L25.8603 16.3177H15.8736Z" fill="#0F4B90"/>
</svg>
