<svg width="41" height="41" viewBox="0 0 41 41" fill="none" xmlns="http://www.w3.org/2000/svg">
<rect x="0.865234" y="0.984375" width="40" height="40" rx="20" fill="#FF9EC3" fill-opacity="0.1"/>
<path d="M20.8602 26.3466L24.1536 23.0399C24.758 22.4443 25.1669 21.7421 25.3802 20.9332C25.5847 20.1421 25.5847 19.351 25.3802 18.5599C25.1669 17.751 24.7602 17.0466 24.1602 16.4466C23.5602 15.8466 22.8558 15.4399 22.0469 15.2266C21.2558 15.0221 20.4647 15.0221 19.6736 15.2266C18.8647 15.4399 18.1602 15.8466 17.5602 16.4466C16.9602 17.0466 16.5536 17.751 16.3402 18.5599C16.1358 19.351 16.1358 20.1421 16.3402 20.9332C16.5536 21.7421 16.9625 22.4443 17.5669 23.0399L20.8602 26.3466ZM20.8602 28.2266L16.6202 23.9866C15.8469 23.2221 15.3269 22.3155 15.0602 21.2666C14.7936 20.2532 14.7936 19.2399 15.0602 18.2266C15.3269 17.1777 15.8447 16.2688 16.6136 15.4999C17.3825 14.731 18.2913 14.2088 19.3402 13.9332C20.3536 13.6755 21.3669 13.6755 22.3802 13.9332C23.4291 14.2088 24.338 14.731 25.1069 15.4999C25.8758 16.2688 26.3936 17.1777 26.6602 18.2266C26.9269 19.2399 26.9269 20.2532 26.6602 21.2666C26.3936 22.3155 25.8736 23.2221 25.1002 23.9866L20.8602 28.2266ZM20.8602 21.0799C21.1002 21.0799 21.3225 21.0199 21.5269 20.8999C21.7313 20.7799 21.8936 20.6177 22.0136 20.4132C22.1336 20.2088 22.1936 19.9866 22.1936 19.7466C22.1936 19.5066 22.1336 19.2843 22.0136 19.0799C21.8936 18.8755 21.7313 18.7132 21.5269 18.5932C21.3225 18.4732 21.1002 18.4132 20.8602 18.4132C20.6202 18.4132 20.398 18.4732 20.1936 18.5932C19.9891 18.7132 19.8269 18.8755 19.7069 19.0799C19.5869 19.2843 19.5269 19.5066 19.5269 19.7466C19.5269 19.9866 19.5869 20.2088 19.7069 20.4132C19.8269 20.6177 19.9891 20.7799 20.1936 20.8999C20.398 21.0199 20.6202 21.0799 20.8602 21.0799ZM20.8602 22.4132C20.3802 22.4132 19.9358 22.2932 19.5269 22.0532C19.118 21.8132 18.7936 21.4888 18.5536 21.0799C18.3136 20.671 18.1936 20.2243 18.1936 19.7399C18.1936 19.2555 18.3136 18.811 18.5536 18.4066C18.7936 18.0021 19.118 17.6799 19.5269 17.4399C19.9358 17.1999 20.3802 17.0799 20.8602 17.0799C21.3402 17.0799 21.7847 17.1999 22.1936 17.4399C22.6025 17.6799 22.9269 18.0021 23.1669 18.4066C23.4069 18.811 23.5269 19.2555 23.5269 19.7399C23.5269 20.2243 23.4069 20.671 23.1669 21.0799C22.9269 21.4888 22.6025 21.8132 22.1936 22.0532C21.7847 22.2932 21.3402 22.4132 20.8602 22.4132Z" fill="#FF9EC3"/>
</svg>
