<svg width="171" height="31" viewBox="0 0 171 31" fill="none" xmlns="http://www.w3.org/2000/svg">
<path d="M9.67524 29.3025C7.01523 29.3025 4.88523 28.8025 3.28523 27.8025C1.68523 26.7825 0.885234 25.2325 0.885234 23.1525C0.885234 22.0525 1.07523 21.2125 1.45523 20.6325C1.83523 20.0525 2.39523 19.7625 3.13523 19.7625C3.67523 19.7625 4.11523 19.9025 4.45523 20.1825C4.79523 20.4625 4.96523 20.8225 4.96523 21.2625C4.96523 21.6625 4.93523 22.0125 4.87523 22.3125C4.87523 22.3925 4.85523 22.5325 4.81523 22.7325C4.79523 22.9325 4.78523 23.1425 4.78523 23.3625C4.78523 24.2625 5.23523 24.9325 6.13523 25.3725C7.05523 25.8125 8.33523 26.0325 9.97523 26.0325C11.6752 26.0325 13.0052 25.7325 13.9652 25.1325C14.9252 24.5125 15.4052 23.6525 15.4052 22.5525C15.4052 21.8725 15.1852 21.2925 14.7452 20.8125C14.3052 20.3125 13.7552 19.9025 13.0952 19.5825C12.4352 19.2425 11.5052 18.8325 10.3052 18.3525C8.76524 17.7525 7.50524 17.1825 6.52523 16.6425C5.56523 16.1025 4.73523 15.3725 4.03523 14.4525C3.35523 13.5125 3.01523 12.3525 3.01523 10.9725C3.01523 9.5325 3.39523 8.2525 4.15523 7.1325C4.93523 6.0125 6.04523 5.1425 7.48523 4.5225C8.94523 3.9025 10.6552 3.5925 12.6152 3.5925C14.0752 3.5925 15.4152 3.8125 16.6352 4.2525C17.8552 4.6725 18.8252 5.3225 19.5452 6.2025C20.2852 7.0825 20.6552 8.1625 20.6552 9.4425C20.6552 10.7025 20.4652 11.6525 20.0852 12.2925C19.7052 12.9325 19.1452 13.2525 18.4052 13.2525C17.8852 13.2525 17.4452 13.0925 17.0852 12.7725C16.7452 12.4525 16.5752 12.0725 16.5752 11.6325C16.5752 11.2525 16.6052 10.9025 16.6652 10.5825C16.7252 9.9825 16.7552 9.6025 16.7552 9.4425C16.7552 8.6025 16.3452 7.9625 15.5252 7.5225C14.7052 7.0825 13.6852 6.8625 12.4652 6.8625C10.7452 6.8625 9.42523 7.1825 8.50523 7.8225C7.60523 8.4425 7.15523 9.3225 7.15523 10.4625C7.15523 11.2225 7.38523 11.8725 7.84523 12.4125C8.32523 12.9525 8.91523 13.4025 9.61523 13.7625C10.3152 14.1225 11.2952 14.5525 12.5552 15.0525C14.0752 15.6725 15.2952 16.2325 16.2152 16.7325C17.1352 17.2325 17.9152 17.9125 18.5552 18.7725C19.2152 19.6325 19.5452 20.6925 19.5452 21.9525C19.5452 24.3125 18.6452 26.1325 16.8452 27.4125C15.0652 28.6725 12.6752 29.3025 9.67524 29.3025ZM25.796 29.2125C24.556 29.2125 23.566 28.7625 22.826 27.8625C22.086 26.9625 21.716 25.7825 21.716 24.3225C21.716 22.7225 22.086 21.2125 22.826 19.7925C23.566 18.3525 24.546 17.2025 25.766 16.3425C27.006 15.4625 28.316 15.0225 29.696 15.0225C30.136 15.0225 30.426 15.1125 30.566 15.2925C30.726 15.4525 30.856 15.7525 30.956 16.1925C31.376 16.1125 31.816 16.0725 32.276 16.0725C33.256 16.0725 33.746 16.4225 33.746 17.1225C33.746 17.5425 33.596 18.5425 33.296 20.1225C32.836 22.4225 32.606 24.0225 32.606 24.9225C32.606 25.2225 32.676 25.4625 32.816 25.6425C32.976 25.8225 33.176 25.9125 33.416 25.9125C33.796 25.9125 34.256 25.6725 34.796 25.1925C35.336 24.6925 36.066 23.8925 36.986 22.7925C37.226 22.5125 37.496 22.3725 37.796 22.3725C38.056 22.3725 38.256 22.4925 38.396 22.7325C38.556 22.9725 38.636 23.3025 38.636 23.7225C38.636 24.5225 38.446 25.1425 38.066 25.5825C37.246 26.6025 36.376 27.4625 35.456 28.1625C34.536 28.8625 33.646 29.2125 32.786 29.2125C32.126 29.2125 31.516 28.9925 30.956 28.5525C30.416 28.0925 30.006 27.4725 29.726 26.6925C28.686 28.3725 27.376 29.2125 25.796 29.2125ZM26.876 26.1825C27.316 26.1825 27.736 25.9225 28.136 25.4025C28.536 24.8825 28.826 24.1925 29.006 23.3325L30.116 17.8125C29.276 17.8325 28.496 18.1525 27.776 18.7725C27.076 19.3725 26.516 20.1725 26.096 21.1725C25.676 22.1725 25.466 23.2325 25.466 24.3525C25.466 24.9725 25.586 25.4325 25.826 25.7325C26.086 26.0325 26.436 26.1825 26.876 26.1825ZM53.5378 22.3725C53.7978 22.3725 53.9978 22.4925 54.1378 22.7325C54.2978 22.9725 54.3778 23.3025 54.3778 23.7225C54.3778 24.5225 54.1878 25.1425 53.8078 25.5825C52.9078 26.6825 51.9978 27.5625 51.0778 28.2225C50.1578 28.8825 49.0678 29.2125 47.8078 29.2125C46.2678 29.2125 45.0278 28.7725 44.0878 27.8925C43.1478 27.0125 42.6778 25.8425 42.6778 24.3825C42.6778 23.6025 43.0778 23.0425 43.8778 22.7025C44.7578 22.3225 45.3878 21.9225 45.7678 21.5025C46.1478 21.0625 46.3378 20.5325 46.3378 19.9125C46.3378 19.5525 46.2578 19.2825 46.0978 19.1025C45.9578 18.9225 45.7778 18.8325 45.5578 18.8325C45.0178 18.8325 44.4178 19.2225 43.7578 20.0025C43.1178 20.7825 42.5178 21.7925 41.9578 23.0325C41.3978 24.2525 40.9578 25.5125 40.6378 26.8125C40.4178 27.7525 40.1578 28.3925 39.8578 28.7325C39.5778 29.0525 39.1278 29.2125 38.5078 29.2125C37.8878 29.2125 37.4278 28.9925 37.1278 28.5525C36.8478 28.0925 36.6578 27.3925 36.5578 26.4525C36.4578 25.5125 36.4078 24.1325 36.4078 22.3125C36.4078 19.2325 36.7178 16.0225 37.3378 12.6825C37.9778 9.3425 38.9078 6.5425 40.1278 4.2825C41.3678 2.0025 42.8478 0.862498 44.5678 0.862498C45.4878 0.862498 46.2278 1.2625 46.7878 2.0625C47.3678 2.8425 47.6578 3.8625 47.6578 5.1225C47.6578 7.1425 47.0678 9.2425 45.8878 11.4225C44.7078 13.5825 42.7878 16.1125 40.1278 19.0125C40.0678 20.0525 40.0378 21.1225 40.0378 22.2225C40.9978 19.7225 42.0978 17.9125 43.3378 16.7925C44.5778 15.6525 45.7378 15.0825 46.8178 15.0825C47.8178 15.0825 48.6178 15.4225 49.2178 16.1025C49.8378 16.7825 50.1478 17.6225 50.1478 18.6225C50.1478 19.7225 49.8678 20.7325 49.3078 21.6525C48.7478 22.5725 47.7878 23.3925 46.4278 24.1125C46.5078 24.6525 46.7478 25.0925 47.1478 25.4325C47.5678 25.7525 48.0678 25.9125 48.6478 25.9125C49.2678 25.9125 49.8678 25.6725 50.4478 25.1925C51.0278 24.7125 51.7878 23.9125 52.7278 22.7925C52.9678 22.5125 53.2378 22.3725 53.5378 22.3725ZM43.9378 3.8325C43.5778 3.8325 43.1778 4.3525 42.7378 5.3925C42.2978 6.4125 41.8678 7.8025 41.4478 9.5625C41.0478 11.3025 40.7178 13.2025 40.4578 15.2625C41.6978 13.8025 42.7178 12.2125 43.5178 10.4925C44.3378 8.7725 44.7478 7.2125 44.7478 5.8125C44.7478 5.1725 44.6778 4.6825 44.5378 4.3425C44.3978 4.0025 44.1978 3.8325 43.9378 3.8325ZM55.0195 29.2125C54.1195 29.2125 53.3795 28.8025 52.7995 27.9825C52.2395 27.1425 51.9595 26.1025 51.9595 24.8625C51.9595 23.3625 52.0595 21.9925 52.2595 20.7525C52.4595 19.4925 52.7895 18.1625 53.2495 16.7625C53.4495 16.1625 53.7295 15.7325 54.0895 15.4725C54.4495 15.2125 55.0195 15.0825 55.7995 15.0825C56.2395 15.0825 56.5395 15.1525 56.6995 15.2925C56.8795 15.4325 56.9695 15.6425 56.9695 15.9225C56.9695 16.0825 56.8595 16.6225 56.6395 17.5425C56.4395 18.2825 56.2795 18.9525 56.1595 19.5525C55.7595 21.6525 55.5595 23.0525 55.5595 23.7525C55.5595 24.1725 55.6095 24.4725 55.7095 24.6525C55.8095 24.8125 55.9695 24.8925 56.1895 24.8925C56.4895 24.8925 56.8595 24.5925 57.2995 23.9925C57.7595 23.3925 58.2395 22.4825 58.7395 21.2625C59.2595 20.0425 59.7595 18.5425 60.2395 16.7625C60.3995 16.1625 60.6395 15.7325 60.9595 15.4725C61.2995 15.2125 61.7995 15.0825 62.4595 15.0825C62.9195 15.0825 63.2395 15.1425 63.4195 15.2625C63.5995 15.3625 63.6895 15.5625 63.6895 15.8625C63.6895 16.3625 63.4395 17.7325 62.9395 19.9725C62.3795 22.5325 62.0995 24.1125 62.0995 24.7125C62.0995 25.0925 62.1795 25.3925 62.3395 25.6125C62.4995 25.8125 62.7095 25.9125 62.9695 25.9125C63.3695 25.9125 63.8395 25.6725 64.3795 25.1925C64.9395 24.6925 65.6795 23.8925 66.5995 22.7925C66.8395 22.5125 67.1095 22.3725 67.4095 22.3725C67.6695 22.3725 67.8695 22.4925 68.0095 22.7325C68.1695 22.9725 68.2495 23.3025 68.2495 23.7225C68.2495 24.5225 68.0595 25.1425 67.6795 25.5825C66.8195 26.6425 65.8895 27.5125 64.8895 28.1925C63.9095 28.8725 62.7895 29.2125 61.5295 29.2125C60.5695 29.2125 59.8595 28.8425 59.3995 28.1025C58.9595 27.3625 58.7395 26.3225 58.7395 24.9825C58.3995 26.3425 57.8895 27.3925 57.2095 28.1325C56.5295 28.8525 55.7995 29.2125 55.0195 29.2125ZM67.947 29.2125C67.187 29.2125 66.647 28.8125 66.327 28.0125C66.027 27.2125 65.877 25.9325 65.877 24.1725C65.877 21.5725 66.247 19.1025 66.987 16.7625C67.167 16.1825 67.457 15.7625 67.857 15.5025C68.277 15.2225 68.857 15.0825 69.597 15.0825C69.997 15.0825 70.277 15.1325 70.437 15.2325C70.597 15.3325 70.677 15.5225 70.677 15.8025C70.677 16.1225 70.527 16.8425 70.227 17.9625C70.027 18.7625 69.867 19.4625 69.747 20.0625C69.627 20.6625 69.527 21.4025 69.447 22.2825C70.107 20.5625 70.847 19.1625 71.667 18.0825C72.487 17.0025 73.287 16.2325 74.067 15.7725C74.867 15.3125 75.597 15.0825 76.257 15.0825C77.557 15.0825 78.207 15.7325 78.207 17.0325C78.207 17.2925 78.117 17.9225 77.937 18.9225C77.777 19.7225 77.697 20.2225 77.697 20.4225C77.697 21.1225 77.947 21.4725 78.447 21.4725C79.007 21.4725 79.727 21.0325 80.607 20.1525C80.867 19.8925 81.137 19.7625 81.417 19.7625C81.677 19.7625 81.877 19.8825 82.017 20.1225C82.177 20.3425 82.257 20.6425 82.257 21.0225C82.257 21.7625 82.057 22.3425 81.657 22.7625C81.097 23.3425 80.437 23.8425 79.677 24.2625C78.937 24.6625 78.147 24.8625 77.307 24.8625C76.247 24.8625 75.437 24.5925 74.877 24.0525C74.337 23.5125 74.067 22.7825 74.067 21.8625C74.067 21.5625 74.097 21.2625 74.157 20.9625C74.197 20.5625 74.217 20.2925 74.217 20.1525C74.217 19.8325 74.107 19.6725 73.887 19.6725C73.587 19.6725 73.187 20.0125 72.687 20.6925C72.207 21.3525 71.727 22.2325 71.247 23.3325C70.767 24.4325 70.377 25.5925 70.077 26.8125C69.857 27.7525 69.597 28.3925 69.297 28.7325C69.017 29.0525 68.567 29.2125 67.947 29.2125ZM83.1593 29.2125C81.9193 29.2125 80.9293 28.7625 80.1893 27.8625C79.4493 26.9625 79.0793 25.7825 79.0793 24.3225C79.0793 22.7225 79.4493 21.2125 80.1893 19.7925C80.9293 18.3525 81.9093 17.2025 83.1293 16.3425C84.3693 15.4625 85.6793 15.0225 87.0593 15.0225C87.4993 15.0225 87.7893 15.1125 87.9293 15.2925C88.0893 15.4525 88.2193 15.7525 88.3193 16.1925C88.7393 16.1125 89.1793 16.0725 89.6393 16.0725C90.6193 16.0725 91.1093 16.4225 91.1093 17.1225C91.1093 17.5425 90.9593 18.5425 90.6593 20.1225C90.1993 22.4225 89.9693 24.0225 89.9693 24.9225C89.9693 25.2225 90.0393 25.4625 90.1793 25.6425C90.3393 25.8225 90.5393 25.9125 90.7793 25.9125C91.1593 25.9125 91.6193 25.6725 92.1593 25.1925C92.6993 24.6925 93.4293 23.8925 94.3493 22.7925C94.5893 22.5125 94.8593 22.3725 95.1593 22.3725C95.4193 22.3725 95.6193 22.4925 95.7593 22.7325C95.9193 22.9725 95.9993 23.3025 95.9993 23.7225C95.9993 24.5225 95.8093 25.1425 95.4293 25.5825C94.6093 26.6025 93.7393 27.4625 92.8193 28.1625C91.8993 28.8625 91.0093 29.2125 90.1493 29.2125C89.4893 29.2125 88.8793 28.9925 88.3193 28.5525C87.7793 28.0925 87.3693 27.4725 87.0893 26.6925C86.0493 28.3725 84.7393 29.2125 83.1593 29.2125ZM84.2393 26.1825C84.6793 26.1825 85.0993 25.9225 85.4993 25.4025C85.8993 24.8825 86.1893 24.1925 86.3693 23.3325L87.4793 17.8125C86.6393 17.8325 85.8593 18.1525 85.1393 18.7725C84.4393 19.3725 83.8793 20.1725 83.4593 21.1725C83.0393 22.1725 82.8293 23.2325 82.8293 24.3525C82.8293 24.9725 82.9493 25.4325 83.1893 25.7325C83.4493 26.0325 83.7993 26.1825 84.2393 26.1825ZM118.161 9.8625C118.161 11.5625 117.561 13.0325 116.361 14.2725C115.161 15.4925 113.411 16.3725 111.111 16.9125C112.351 17.2525 113.291 17.8125 113.931 18.5925C114.571 19.3525 114.891 20.2325 114.891 21.2325C114.891 22.8125 114.391 24.1825 113.391 25.3425C112.411 26.5025 110.971 27.4025 109.071 28.0425C107.171 28.6625 104.881 28.9725 102.201 28.9725C101.201 28.9725 100.401 28.9425 99.8011 28.8825C99.7811 29.4425 99.5411 29.8625 99.0811 30.1425C98.6211 30.4225 98.0311 30.5625 97.3111 30.5625C96.5911 30.5625 96.0911 30.4025 95.8111 30.0825C95.5511 29.7625 95.4411 29.2925 95.4811 28.6725C95.6611 25.8725 96.0111 22.9425 96.5311 19.8825C97.0511 16.8025 97.7111 13.8325 98.5111 10.9725C98.6511 10.4725 98.9311 10.1225 99.3511 9.9225C99.7711 9.7225 100.321 9.6225 101.001 9.6225C102.221 9.6225 102.831 9.9625 102.831 10.6425C102.831 10.9225 102.771 11.2425 102.651 11.6025C102.131 13.1625 101.611 15.2825 101.091 17.9625C100.571 20.6225 100.201 23.1625 99.9811 25.5825C100.941 25.6625 101.721 25.7025 102.321 25.7025C105.121 25.7025 107.171 25.3025 108.471 24.5025C109.791 23.6825 110.451 22.6425 110.451 21.3825C110.451 20.5025 110.071 19.7625 109.311 19.1625C108.571 18.5625 107.321 18.2325 105.561 18.1725C105.161 18.1525 104.881 18.0525 104.721 17.8725C104.561 17.6925 104.481 17.4025 104.481 17.0025C104.481 16.4225 104.601 15.9525 104.841 15.5925C105.081 15.2325 105.521 15.0425 106.161 15.0225C107.581 14.9825 108.861 14.7725 110.001 14.3925C111.161 14.0125 112.071 13.4825 112.731 12.8025C113.391 12.1025 113.721 11.2925 113.721 10.3725C113.721 9.2125 113.151 8.3025 112.011 7.6425C110.871 6.9625 109.121 6.6225 106.761 6.6225C104.621 6.6225 102.551 6.9025 100.551 7.4625C98.5511 8.0025 96.8511 8.6925 95.4511 9.5325C94.8111 9.9125 94.2711 10.1025 93.8311 10.1025C93.4711 10.1025 93.1911 9.9825 92.9911 9.7425C92.8111 9.4825 92.7211 9.1625 92.7211 8.7825C92.7211 8.2825 92.8211 7.8525 93.0211 7.4925C93.2411 7.1325 93.7511 6.7225 94.5511 6.2625C96.2311 5.3025 98.2011 4.5525 100.461 4.0125C102.721 3.4725 105.031 3.2025 107.391 3.2025C111.011 3.2025 113.711 3.8125 115.491 5.0325C117.271 6.2525 118.161 7.8625 118.161 9.8625ZM132.621 19.8525C132.881 19.8525 133.081 19.9825 133.221 20.2425C133.361 20.5025 133.431 20.8325 133.431 21.2325C133.431 22.1925 133.141 22.7625 132.561 22.9425C131.361 23.3625 130.041 23.6025 128.601 23.6625C128.221 25.3425 127.471 26.6925 126.351 27.7125C125.231 28.7125 123.961 29.2125 122.541 29.2125C121.341 29.2125 120.311 28.9225 119.451 28.3425C118.611 27.7625 117.971 26.9925 117.531 26.0325C117.091 25.0725 116.871 24.0325 116.871 22.9125C116.871 21.3925 117.161 20.0425 117.741 18.8625C118.321 17.6625 119.121 16.7325 120.141 16.0725C121.161 15.3925 122.291 15.0525 123.531 15.0525C125.051 15.0525 126.271 15.5825 127.191 16.6425C128.131 17.6825 128.681 18.9725 128.841 20.5125C129.781 20.4525 130.901 20.2525 132.201 19.9125C132.361 19.8725 132.501 19.8525 132.621 19.8525ZM122.781 26.0325C123.421 26.0325 123.971 25.7725 124.431 25.2525C124.911 24.7325 125.231 23.9825 125.391 23.0025C124.771 22.5825 124.291 22.0325 123.951 21.3525C123.631 20.6725 123.471 19.9525 123.471 19.1925C123.471 18.8725 123.501 18.5525 123.561 18.2325H123.411C122.611 18.2325 121.941 18.6225 121.401 19.4025C120.881 20.1625 120.621 21.2425 120.621 22.6425C120.621 23.7425 120.831 24.5825 121.251 25.1625C121.691 25.7425 122.201 26.0325 122.781 26.0325ZM146.156 19.8525C146.416 19.8525 146.616 19.9825 146.756 20.2425C146.896 20.5025 146.966 20.8325 146.966 21.2325C146.966 22.1925 146.676 22.7625 146.096 22.9425C144.896 23.3625 143.576 23.6025 142.136 23.6625C141.756 25.3425 141.006 26.6925 139.886 27.7125C138.766 28.7125 137.496 29.2125 136.076 29.2125C134.876 29.2125 133.846 28.9225 132.986 28.3425C132.146 27.7625 131.506 26.9925 131.066 26.0325C130.626 25.0725 130.406 24.0325 130.406 22.9125C130.406 21.3925 130.696 20.0425 131.276 18.8625C131.856 17.6625 132.656 16.7325 133.676 16.0725C134.696 15.3925 135.826 15.0525 137.066 15.0525C138.586 15.0525 139.806 15.5825 140.726 16.6425C141.666 17.6825 142.216 18.9725 142.376 20.5125C143.316 20.4525 144.436 20.2525 145.736 19.9125C145.896 19.8725 146.036 19.8525 146.156 19.8525ZM136.316 26.0325C136.956 26.0325 137.506 25.7725 137.966 25.2525C138.446 24.7325 138.766 23.9825 138.926 23.0025C138.306 22.5825 137.826 22.0325 137.486 21.3525C137.166 20.6725 137.006 19.9525 137.006 19.1925C137.006 18.8725 137.036 18.5525 137.096 18.2325H136.946C136.146 18.2325 135.476 18.6225 134.936 19.4025C134.416 20.1625 134.156 21.2425 134.156 22.6425C134.156 23.7425 134.366 24.5825 134.786 25.1625C135.226 25.7425 135.736 26.0325 136.316 26.0325ZM161.731 22.3725C161.991 22.3725 162.191 22.4925 162.331 22.7325C162.491 22.9725 162.571 23.3025 162.571 23.7225C162.571 24.5225 162.381 25.1425 162.001 25.5825C161.101 26.6825 160.191 27.5625 159.271 28.2225C158.351 28.8825 157.261 29.2125 156.001 29.2125C154.461 29.2125 153.221 28.7725 152.281 27.8925C151.341 27.0125 150.871 25.8425 150.871 24.3825C150.871 23.6025 151.271 23.0425 152.071 22.7025C152.951 22.3225 153.581 21.9225 153.961 21.5025C154.341 21.0625 154.531 20.5325 154.531 19.9125C154.531 19.5525 154.451 19.2825 154.291 19.1025C154.151 18.9225 153.971 18.8325 153.751 18.8325C153.211 18.8325 152.611 19.2225 151.951 20.0025C151.311 20.7825 150.711 21.7925 150.151 23.0325C149.591 24.2525 149.151 25.5125 148.831 26.8125C148.611 27.7525 148.351 28.3925 148.051 28.7325C147.771 29.0525 147.321 29.2125 146.701 29.2125C146.081 29.2125 145.621 28.9925 145.321 28.5525C145.041 28.0925 144.851 27.3925 144.751 26.4525C144.651 25.5125 144.601 24.1325 144.601 22.3125C144.601 19.2325 144.911 16.0225 145.531 12.6825C146.171 9.3425 147.101 6.5425 148.321 4.2825C149.561 2.0025 151.041 0.862498 152.761 0.862498C153.681 0.862498 154.421 1.2625 154.981 2.0625C155.561 2.8425 155.851 3.8625 155.851 5.1225C155.851 7.1425 155.261 9.2425 154.081 11.4225C152.901 13.5825 150.981 16.1125 148.321 19.0125C148.261 20.0525 148.231 21.1225 148.231 22.2225C149.191 19.7225 150.291 17.9125 151.531 16.7925C152.771 15.6525 153.931 15.0825 155.011 15.0825C156.011 15.0825 156.811 15.4225 157.411 16.1025C158.031 16.7825 158.341 17.6225 158.341 18.6225C158.341 19.7225 158.061 20.7325 157.501 21.6525C156.941 22.5725 155.981 23.3925 154.621 24.1125C154.701 24.6525 154.941 25.0925 155.341 25.4325C155.761 25.7525 156.261 25.9125 156.841 25.9125C157.461 25.9125 158.061 25.6725 158.641 25.1925C159.221 24.7125 159.981 23.9125 160.921 22.7925C161.161 22.5125 161.431 22.3725 161.731 22.3725ZM152.131 3.8325C151.771 3.8325 151.371 4.3525 150.931 5.3925C150.491 6.4125 150.061 7.8025 149.641 9.5625C149.241 11.3025 148.911 13.2025 148.651 15.2625C149.891 13.8025 150.911 12.2125 151.711 10.4925C152.531 8.7725 152.941 7.2125 152.941 5.8125C152.941 5.1725 152.871 4.6825 152.731 4.3425C152.591 4.0025 152.391 3.8325 152.131 3.8325ZM165.733 29.8725C164.693 29.8725 163.893 29.6325 163.333 29.1525C162.793 28.6725 162.523 28.1325 162.523 27.5325C162.523 27.0125 162.713 26.5625 163.093 26.1825C163.473 25.8025 164.033 25.6125 164.773 25.6125C165.033 25.6125 165.333 25.6425 165.673 25.7025C166.033 25.7425 166.303 25.7725 166.483 25.7925C166.463 25.2725 166.343 24.7825 166.123 24.3225C165.923 23.8625 165.663 23.4225 165.343 23.0025C165.023 22.5625 164.723 22.1825 164.443 21.8625C163.823 23.0425 163.203 24.0225 162.583 24.8025C161.983 25.5825 161.323 26.3225 160.603 27.0225C160.243 27.3825 159.863 27.5625 159.463 27.5625C159.143 27.5625 158.883 27.4525 158.683 27.2325C158.483 26.9925 158.383 26.7025 158.383 26.3625C158.383 25.9625 158.523 25.5925 158.803 25.2525L159.193 24.7725C160.293 23.4125 161.123 22.2925 161.683 21.4125C162.043 20.8325 162.403 20.1425 162.763 19.3425C163.143 18.5425 163.633 17.4525 164.233 16.0725C164.613 15.1925 165.403 14.7525 166.603 14.7525C167.163 14.7525 167.553 14.8025 167.773 14.9025C167.993 15.0025 168.103 15.1625 168.103 15.3825C168.103 15.5025 168.063 15.6925 167.983 15.9525C167.903 16.2125 167.793 16.4725 167.653 16.7325C167.293 17.4525 167.113 18.0625 167.113 18.5625C167.113 18.8625 167.213 19.1925 167.413 19.5525C167.633 19.9125 167.963 20.3625 168.403 20.9025C169.043 21.7425 169.523 22.4625 169.843 23.0625C170.183 23.6425 170.353 24.2825 170.353 24.9825C170.353 25.8225 170.153 26.6225 169.753 27.3825C169.373 28.1225 168.833 28.7225 168.133 29.1825C167.433 29.6425 166.633 29.8725 165.733 29.8725Z" fill="#FF9EC3"/>
</svg>
