<svg width="41" height="41" viewBox="0 0 41 41" fill="none" xmlns="http://www.w3.org/2000/svg">
<rect x="0.865234" y="0.984375" width="40" height="40" rx="20" fill="#FF9EC3" fill-opacity="0.1"/>
<path d="M19.1002 20.1044C19.4113 20.6555 19.7913 21.1555 20.2402 21.6044C20.6891 22.0533 21.1891 22.4333 21.7402 22.7444L22.3269 21.9177C22.4247 21.7755 22.5558 21.6866 22.7202 21.651C22.8847 21.6155 23.0425 21.6377 23.1936 21.7177C24.1447 22.2422 25.1625 22.5444 26.2469 22.6244C26.4158 22.6422 26.5602 22.7133 26.6802 22.8377C26.8002 22.9622 26.8602 23.1133 26.8602 23.291V26.2644C26.8602 26.4333 26.8025 26.5822 26.6869 26.711C26.5713 26.8399 26.4291 26.9133 26.2602 26.931C25.9047 26.9666 25.5491 26.9844 25.1936 26.9844C23.7891 26.9844 22.4469 26.7133 21.1669 26.171C19.9313 25.6466 18.838 24.9088 17.8869 23.9577C16.9358 23.0066 16.198 21.9133 15.6736 20.6777C15.1313 19.3977 14.8602 18.0555 14.8602 16.651C14.8602 16.2955 14.878 15.9399 14.9136 15.5844C14.9313 15.4155 15.0047 15.2733 15.1336 15.1577C15.2625 15.0422 15.4113 14.9844 15.5802 14.9844H18.5536C18.7313 14.9844 18.8825 15.0444 19.0069 15.1644C19.1313 15.2844 19.2025 15.4288 19.2202 15.5977C19.3002 16.6822 19.6025 17.6999 20.1269 18.651C20.2069 18.8022 20.2291 18.9599 20.1936 19.1244C20.158 19.2888 20.0691 19.4199 19.9269 19.5177L19.1002 20.1044ZM17.4202 19.6644L18.6869 18.7577C18.3313 17.9844 18.0869 17.171 17.9536 16.3177H16.1936V16.651C16.1936 17.8688 16.4291 19.0377 16.9002 20.1577C17.3536 21.2333 17.9958 22.1866 18.8269 23.0177C19.658 23.8488 20.6113 24.491 21.6869 24.9444C22.8069 25.4155 23.9758 25.651 25.1936 25.651H25.5269V23.891C24.6736 23.7577 23.8602 23.5133 23.0869 23.1577L22.1802 24.4244C21.8158 24.2822 21.4602 24.1133 21.1136 23.9177L21.0736 23.9044C20.4247 23.531 19.8336 23.0777 19.3002 22.5444C18.7669 22.011 18.3136 21.4199 17.9402 20.771L17.9269 20.731C17.7313 20.3844 17.5625 20.0288 17.4202 19.6644Z" fill="#FF9EC3"/>
</svg>
