<svg width="65" height="65" viewBox="0 0 65 65" fill="none" xmlns="http://www.w3.org/2000/svg">
<rect x="0.865234" y="0.0625" width="64" height="64" rx="32" fill="#0F4B90" fill-opacity="0.1"/>
<path d="M23.8652 38.5625V25.0625C23.8652 24.5158 23.9986 24.0125 24.2652 23.5525C24.5319 23.0925 24.8952 22.7292 25.3552 22.4625C25.8152 22.1958 26.3186 22.0625 26.8652 22.0625H40.8652C41.1452 22.0625 41.3819 22.1592 41.5752 22.3525C41.7686 22.5458 41.8652 22.7825 41.8652 23.0625V41.0625C41.8652 41.3425 41.7686 41.5792 41.5752 41.7725C41.3819 41.9658 41.1452 42.0625 40.8652 42.0625H27.3652C26.7252 42.0625 26.1386 41.9058 25.6052 41.5925C25.0719 41.2792 24.6486 40.8558 24.3352 40.3225C24.0219 39.7892 23.8652 39.2025 23.8652 38.5625ZM39.8652 40.0625V37.0625H27.3652C26.9519 37.0625 26.5986 37.2092 26.3052 37.5025C26.0119 37.7958 25.8652 38.1492 25.8652 38.5625C25.8652 38.9758 26.0119 39.3292 26.3052 39.6225C26.5986 39.9158 26.9519 40.0625 27.3652 40.0625H39.8652ZM25.8652 35.4025C26.3319 35.1758 26.8319 35.0625 27.3652 35.0625H39.8652V24.0625H26.8652C26.5852 24.0625 26.3486 24.1592 26.1552 24.3525C25.9619 24.5458 25.8652 24.7825 25.8652 25.0625V35.4025Z" fill="#0F4B90"/>
</svg>
