<svg width="49" height="49" viewBox="0 0 49 49" fill="none" xmlns="http://www.w3.org/2000/svg">
<rect x="0.315186" y="0.0625" width="48" height="48" rx="24" fill="#7ACDF4" fill-opacity="0.1"/>
<path d="M28.4888 26.9314V32.6481C28.4888 32.7703 28.4471 32.8703 28.3637 32.9481C28.2804 33.0259 28.1831 33.0648 28.0719 33.0648C27.9941 33.0648 27.9219 33.0481 27.8552 33.0148L24.3201 30.8981L20.7851 33.0148C20.6851 33.0703 20.5795 33.0842 20.4683 33.0564C20.3571 33.0286 20.2737 32.9648 20.2182 32.8648C20.1737 32.7981 20.1515 32.7259 20.1515 32.6481V26.9314C19.3733 26.3092 18.7675 25.5536 18.3339 24.6648C17.8782 23.7425 17.6503 22.7648 17.6503 21.7314C17.6503 20.5203 17.956 19.3981 18.5674 18.3648C19.1565 17.3536 19.9514 16.5536 20.9519 15.9648C21.9857 15.3648 23.1084 15.0648 24.3201 15.0648C25.5318 15.0648 26.6546 15.3648 27.6884 15.9648C28.6889 16.5536 29.4837 17.3536 30.0729 18.3648C30.6843 19.3981 30.99 20.5203 30.99 21.7314C30.99 22.7648 30.7621 23.7425 30.3063 24.6648C29.8728 25.5536 29.267 26.3092 28.4888 26.9314ZM21.8189 27.8981V30.4481L24.3201 28.9481L26.8213 30.4481V27.8981C26.021 28.2314 25.1872 28.3981 24.3201 28.3981C23.4531 28.3981 22.6193 28.237 21.8189 27.9148V27.8981ZM24.3201 26.7314C25.2206 26.7314 26.0599 26.5036 26.838 26.0481C27.5939 25.6036 28.1942 25.0036 28.6389 24.2481C29.0946 23.4703 29.3225 22.6286 29.3225 21.7231C29.3225 20.8175 29.0946 19.9759 28.6389 19.1981C28.1942 18.4425 27.5939 17.8481 26.838 17.4148C26.0599 16.9592 25.2206 16.7314 24.3201 16.7314C23.4197 16.7314 22.5804 16.9592 21.8023 17.4148C21.0463 17.8481 20.4461 18.4425 20.0014 19.1981C19.5456 19.9759 19.3177 20.8175 19.3177 21.7231C19.3177 22.6286 19.5456 23.4703 20.0014 24.2481C20.4461 25.0036 21.0463 25.6036 21.8023 26.0481C22.5804 26.5036 23.4197 26.7314 24.3201 26.7314Z" fill="#7ACDF4"/>
</svg>
