<svg width="18" height="17" viewBox="0 0 18 17" fill="none" xmlns="http://www.w3.org/2000/svg">
<path d="M13.2302 11.0358L16.0835 13.8892L15.1369 14.8358L12.2835 11.9825C11.7591 12.4003 11.1858 12.7203 10.5635 12.9425C9.90575 13.1736 9.2302 13.2892 8.53687 13.2892C7.45242 13.2892 6.44353 13.0181 5.5102 12.4758C4.60353 11.9425 3.88798 11.2225 3.36353 10.3158C2.81242 9.3825 2.53687 8.37361 2.53687 7.28917C2.53687 6.20472 2.81242 5.19583 3.36353 4.2625C3.88798 3.35583 4.60353 2.64028 5.5102 2.11583C6.44353 1.56472 7.45242 1.28917 8.53687 1.28917C9.62131 1.28917 10.6302 1.56472 11.5635 2.11583C12.4702 2.64028 13.1902 3.35583 13.7235 4.2625C14.2658 5.19583 14.5369 6.20472 14.5369 7.28917C14.5369 7.9825 14.4213 8.65806 14.1902 9.31583C13.968 9.93806 13.648 10.5114 13.2302 11.0358ZM11.8835 10.5425C12.3013 10.1158 12.6258 9.62695 12.8569 9.07583C13.088 8.50695 13.2035 7.91139 13.2035 7.28917C13.2035 6.44472 12.9902 5.65806 12.5635 4.92917C12.1546 4.22694 11.5991 3.67139 10.8969 3.2625C10.168 2.83583 9.38131 2.6225 8.53687 2.6225C7.69242 2.6225 6.90575 2.83583 6.17687 3.2625C5.47464 3.67139 4.91909 4.22694 4.5102 4.92917C4.08353 5.65806 3.8702 6.44472 3.8702 7.28917C3.8702 8.13361 4.08353 8.92028 4.5102 9.64917C4.91909 10.3514 5.47464 10.9069 6.17687 11.3158C6.90575 11.7425 7.69242 11.9558 8.53687 11.9558C9.15909 11.9558 9.75464 11.8403 10.3235 11.6092C10.8746 11.3781 11.3635 11.0536 11.7902 10.6358L11.8835 10.5425Z" fill="#9CA3AF"/>
</svg>
