<svg width="65" height="65" viewBox="0 0 65 65" fill="none" xmlns="http://www.w3.org/2000/svg">
<rect x="0.865234" y="0.0625" width="64" height="64" rx="32" fill="#7ACDF4" fill-opacity="0.1"/>
<path d="M35.9653 29.9206C35.5253 29.494 35.2653 28.974 35.1853 28.3606L34.7853 25.2806L32.0453 26.7606C31.512 27.054 30.9387 27.1473 30.3253 27.0406L27.2653 26.4606L27.8453 29.5206C27.952 30.134 27.8587 30.7073 27.5653 31.2406L26.0853 33.9806L29.1653 34.3806C29.7787 34.4606 30.2987 34.7206 30.7253 35.1606L32.8653 37.4206L34.1853 34.6206C34.452 34.0606 34.8653 33.6473 35.4253 33.3806L38.2253 32.0606L35.9653 29.9206ZM36.0053 35.4806L33.7853 40.1206C33.7187 40.2806 33.6053 40.3873 33.4453 40.4406C33.2853 40.494 33.132 40.4873 32.9853 40.4206C32.9187 40.3806 32.8587 40.334 32.8053 40.2806L29.2653 36.5406C29.172 36.434 29.052 36.374 28.9053 36.3606L23.8053 35.7006C23.6453 35.674 23.512 35.594 23.4053 35.4606C23.2987 35.3273 23.2587 35.1806 23.2853 35.0206C23.2987 34.9406 23.3187 34.874 23.3453 34.8206L25.8053 30.2806C25.8853 30.1606 25.912 30.034 25.8853 29.9006L24.9253 24.8206C24.8987 24.6606 24.932 24.514 25.0253 24.3806C25.1187 24.2473 25.2453 24.1606 25.4053 24.1206C25.4853 24.1073 25.5587 24.1073 25.6253 24.1206L30.7053 25.0806C30.8387 25.1073 30.9653 25.0806 31.0853 25.0006L35.6253 22.5406C35.7587 22.4606 35.9053 22.444 36.0653 22.4906C36.2253 22.5373 36.3453 22.634 36.4253 22.7806C36.4653 22.8473 36.492 22.9206 36.5053 23.0006L37.1653 28.1006C37.1787 28.2473 37.2387 28.3673 37.3453 28.4606L41.0853 32.0006C41.2053 32.1206 41.2687 32.2606 41.2753 32.4206C41.282 32.5806 41.2253 32.7273 41.1053 32.8606C41.052 32.914 40.992 32.954 40.9253 32.9806L36.2853 35.2006C36.152 35.254 36.0587 35.3473 36.0053 35.4806ZM36.7853 37.4006L38.2053 35.9806L42.4453 40.2406L41.0453 41.6406L36.7853 37.4006Z" fill="#7ACDF4"/>
</svg>
