<svg width="65" height="65" viewBox="0 0 65 65" fill="none" xmlns="http://www.w3.org/2000/svg">
<rect x="0.865234" y="0.0625" width="64" height="64" rx="32" fill="#FF9EC3" fill-opacity="0.1"/>
<path d="M31.4852 34.0459V36.0459C30.4052 36.0459 29.3986 36.3193 28.4652 36.8659C27.5586 37.3993 26.8386 38.1126 26.3052 39.0059C25.7586 39.9393 25.4852 40.9526 25.4852 42.0459H23.4852C23.4852 40.5926 23.8519 39.2459 24.5852 38.0059C25.2919 36.7926 26.2452 35.8326 27.4452 35.1259C28.6852 34.4059 30.0319 34.0459 31.4852 34.0459ZM31.4852 33.0459C30.4052 33.0459 29.3986 32.7726 28.4652 32.2259C27.5586 31.6926 26.8386 30.9726 26.3052 30.0659C25.7586 29.1326 25.4852 28.1226 25.4852 27.0359C25.4852 25.9493 25.7586 24.9393 26.3052 24.0059C26.8386 23.1126 27.5586 22.3993 28.4652 21.8659C29.3986 21.3193 30.4086 21.0459 31.4952 21.0459C32.5819 21.0459 33.5919 21.3193 34.5252 21.8659C35.4186 22.3993 36.1319 23.1126 36.6652 24.0059C37.2119 24.9393 37.4852 25.9493 37.4852 27.0359C37.4852 28.1226 37.2119 29.1326 36.6652 30.0659C36.1319 30.9726 35.4186 31.6926 34.5252 32.2259C33.5919 32.7726 32.5786 33.0459 31.4852 33.0459ZM31.4852 31.0459C32.2052 31.0459 32.8719 30.8659 33.4852 30.5059C34.0986 30.1459 34.5852 29.6593 34.9452 29.0459C35.3052 28.4326 35.4852 27.7659 35.4852 27.0459C35.4852 26.3259 35.3052 25.6593 34.9452 25.0459C34.5852 24.4326 34.0986 23.9459 33.4852 23.5859C32.8719 23.2259 32.2052 23.0459 31.4852 23.0459C30.7652 23.0459 30.0986 23.2259 29.4852 23.5859C28.8719 23.9459 28.3852 24.4326 28.0252 25.0459C27.6652 25.6593 27.4852 26.3259 27.4852 27.0459C27.4852 27.7659 27.6652 28.4326 28.0252 29.0459C28.3852 29.6593 28.8719 30.1459 29.4852 30.5059C30.0986 30.8659 30.7652 31.0459 31.4852 31.0459ZM37.4852 41.5459L34.5452 43.0859L35.1052 39.8059L32.7252 37.5059L36.0252 37.0259L37.4852 34.0459L38.9652 37.0259L42.2452 37.5059L39.8652 39.8059L40.4252 43.0859L37.4852 41.5459Z" fill="#FF9EC3"/>
</svg>
